<svg width="17" height="21" viewBox="0 0 17 21" fill="none" xmlns="http://www.w3.org/2000/svg">
<path d="M4.46645 19.9772C4.07805 19.7188 3.73381 19.3995 3.44698 19.0316C3.13146 18.6519 2.83913 18.2534 2.57157 17.8385C1.94368 16.9187 1.45128 15.9133 1.10947 14.8534C0.698846 13.6221 0.5 12.442 0.5 11.2877C0.5 9.99858 0.778877 8.87323 1.32432 7.92763C1.72864 7.18854 2.32311 6.57091 3.04621 6.13864C3.74698 5.70337 4.55217 5.46518 5.37695 5.44914C5.66568 5.44914 5.97657 5.491 6.30654 5.57103C6.54355 5.63814 6.83228 5.74402 7.18503 5.87577C7.63382 6.04876 7.88068 6.15464 7.96441 6.1805C8.22728 6.27654 8.44829 6.3184 8.62189 6.3184C8.75364 6.3184 8.93955 6.27654 9.15071 6.21251C9.26953 6.17065 9.49361 6.09677 9.81435 5.95949C10.132 5.84375 10.382 5.74464 10.5808 5.67076C10.8855 5.58088 11.1804 5.49777 11.4433 5.45591C11.7549 5.40678 12.0712 5.39377 12.3858 5.41713C12.931 5.45276 13.468 5.5683 13.9796 5.76003C14.8163 6.09677 15.4928 6.62252 15.9964 7.36988C15.7836 7.50107 15.5838 7.65238 15.3999 7.82175C14.9995 8.1767 14.6584 8.5934 14.3896 9.05607C14.0383 9.68835 13.8562 10.4006 13.8608 11.1239C13.8738 12.0123 14.1015 12.7947 14.5503 13.4713C14.8803 13.9727 15.3091 14.4015 15.8105 14.7315C16.0672 14.9045 16.2882 15.0233 16.5 15.1033C16.4009 15.4111 16.295 15.7091 16.17 16.0046C15.8866 16.6672 15.5431 17.3025 15.1438 17.9025C14.788 18.4191 14.5091 18.8038 14.2973 19.0599C13.9673 19.4508 13.6497 19.7494 13.3289 19.9575C12.9762 20.1914 12.5594 20.3164 12.1359 20.3164C11.849 20.3274 11.5622 20.2927 11.2863 20.2136C11.0493 20.1336 10.8147 20.0468 10.5839 19.9476C10.3439 19.8374 10.0964 19.7442 9.84329 19.6688C9.21763 19.5081 8.56164 19.507 7.93547 19.6657C7.67876 19.7396 7.4319 19.8257 7.18811 19.9316C6.84521 20.0757 6.61743 20.1723 6.48569 20.2136C6.22282 20.2905 5.9501 20.3386 5.6743 20.3546C5.24767 20.3546 4.84998 20.2327 4.45598 19.9858L4.46645 19.9772ZM10.0932 4.82367C9.53547 5.10255 9.00296 5.22136 8.47414 5.18258C8.39103 4.65006 8.47414 4.10524 8.69515 3.5087C8.88331 3.00332 9.16132 2.53613 9.51577 2.12971C9.89008 1.70187 10.3443 1.35118 10.8529 1.09731C11.3947 0.818436 11.9112 0.667609 12.4049 0.645447C12.4689 1.2032 12.4049 1.75172 12.1999 2.34456C12.0102 2.86863 11.7327 3.3566 11.3793 3.78758C11.0185 4.21601 10.5759 4.56806 10.0772 4.82305L10.0932 4.82367Z" fill="white"/>
</svg>
