<svg width="19" height="19" viewBox="0 0 19 19" fill="none" xmlns="http://www.w3.org/2000/svg">
<g clip-path="url(#clip0_1_110)">
<path d="M4.44949 7.82375C4.80041 6.76209 5.47764 5.83836 6.38458 5.18435C7.29152 4.53034 8.38184 4.17945 9.49999 4.18175C10.7675 4.18175 11.9135 4.63175 12.8135 5.36825L15.4325 2.75C13.8365 1.35875 11.7912 0.5 9.49999 0.5C5.95249 0.5 2.89849 2.5235 1.42999 5.4875L4.44949 7.82375Z" fill="white"/>
<path d="M12.53 14.0097C11.7125 14.537 10.6745 14.8182 9.49998 14.8182C8.38629 14.8205 7.30009 14.4724 6.39516 13.8233C5.49024 13.1741 4.81244 12.2567 4.45773 11.201L1.42773 13.5012C2.17117 15.006 3.32169 16.272 4.7486 17.1557C6.17552 18.0393 7.82164 18.505 9.49998 18.5C11.6997 18.5 13.8012 17.7177 15.3755 16.25L12.5307 14.0097H12.53Z" fill="white"/>
<path d="M15.3755 16.25C17.0217 14.714 18.0905 12.428 18.0905 9.50003C18.0905 8.96753 18.0087 8.39528 17.8865 7.86353H9.5V11.3413H14.327C14.0893 12.5105 13.4495 13.4158 12.5308 14.0098L15.3755 16.25Z" fill="white"/>
<path d="M4.45778 11.201C4.27429 10.6527 4.18108 10.0782 4.18178 9.49999C4.18178 8.91349 4.27553 8.35024 4.44953 7.82374L1.43003 5.48749C0.81231 6.7345 0.493879 8.10838 0.500026 9.49999C0.500026 10.94 0.833776 12.2975 1.42778 13.5012L4.45778 11.201Z" fill="white"/>
</g>
<defs>
<clipPath id="clip0_1_110">
<rect width="18" height="18" fill="white" transform="translate(0.5 0.5)"/>
</clipPath>
</defs>
</svg>
