<svg xmlns="http://www.w3.org/2000/svg" xmlns:xlink="http://www.w3.org/1999/xlink" width="500" zoomAndPan="magnify" viewBox="0 0 375 374.999991" height="500" preserveAspectRatio="xMidYMid meet" version="1.0"><defs><clipPath id="416e9b5da6"><path d="M 26.878906 46.152344 L 278 46.152344 L 278 280 L 26.878906 280 Z M 26.878906 46.152344 " clip-rule="nonzero"/></clipPath><clipPath id="7bbb223e7e"><path d="M 126 97 L 347.878906 97 L 347.878906 328.902344 L 126 328.902344 Z M 126 97 " clip-rule="nonzero"/></clipPath></defs><g clip-path="url(#416e9b5da6)"><path fill="#0acf83" d="M 277.53125 128.964844 C 277.53125 83.335938 240.476562 46.210938 194.929688 46.210938 L 109.480469 46.210938 C 63.933594 46.210938 26.878906 83.335938 26.878906 128.964844 L 26.878906 151.566406 C 26.878906 187.160156 49.476562 218.671875 83.105469 229.976562 L 86.410156 231.085938 L 84.664062 234.109375 C 80.179688 241.859375 74.085938 254.035156 66.039062 271.328125 C 65.070312 273.402344 65.503906 275.886719 67.117188 277.511719 C 68.714844 279.117188 71.265625 279.566406 73.269531 278.636719 L 170.054688 234.324219 L 194.929688 234.324219 C 240.476562 234.324219 277.53125 197.199219 277.53125 151.566406 Z M 266.570312 151.566406 C 266.570312 191.148438 234.429688 223.351562 194.929688 223.351562 L 168.863281 223.351562 C 168.082031 223.351562 167.292969 223.523438 166.582031 223.851562 L 82.402344 262.394531 L 86.046875 255.144531 C 89.375 248.523438 95.394531 236.847656 98.285156 233.070312 L 98.613281 232.644531 L 99.074219 232.363281 C 100.511719 231.492188 101.457031 230.039062 101.671875 228.371094 C 102.042969 225.457031 100.070312 222.777344 97.179688 222.265625 C 62.796875 216.242188 37.839844 186.507812 37.839844 151.566406 L 37.839844 128.964844 C 37.839844 89.382812 69.976562 57.179688 109.480469 57.179688 L 194.925781 57.179688 C 234.429688 57.179688 266.570312 89.382812 266.570312 128.964844 Z M 266.570312 151.566406 " fill-opacity="1" fill-rule="nonzero"/></g><path fill="#0acf83" d="M 87.636719 126.585938 C 79.050781 126.585938 72.070312 133.578125 72.070312 142.167969 C 72.070312 150.761719 79.054688 157.753906 87.636719 157.753906 C 96.222656 157.753906 103.207031 150.761719 103.207031 142.167969 C 103.207031 133.578125 96.222656 126.585938 87.636719 126.585938 Z M 87.636719 126.585938 " fill-opacity="1" fill-rule="nonzero"/><path fill="#0acf83" d="M 216.773438 126.585938 C 208.1875 126.585938 201.203125 133.578125 201.203125 142.167969 C 201.203125 150.761719 208.1875 157.753906 216.773438 157.753906 C 225.355469 157.753906 232.339844 150.761719 232.339844 142.167969 C 232.339844 133.578125 225.355469 126.585938 216.773438 126.585938 Z M 216.773438 126.585938 " fill-opacity="1" fill-rule="nonzero"/><path fill="#0acf83" d="M 152.207031 126.585938 C 143.621094 126.585938 136.636719 133.578125 136.636719 142.167969 C 136.636719 150.761719 143.621094 157.753906 152.207031 157.753906 C 160.789062 157.753906 167.773438 150.761719 167.773438 142.167969 C 167.773438 133.578125 160.789062 126.585938 152.207031 126.585938 Z M 152.207031 126.585938 " fill-opacity="1" fill-rule="nonzero"/><g clip-path="url(#7bbb223e7e)"><path fill="#0acf83" d="M 137.894531 258.863281 L 126.613281 264.027344 C 141.003906 276.222656 159.550781 283.632812 179.828125 283.632812 L 204.703125 283.632812 L 301.484375 327.945312 C 303.492188 328.875 306.042969 328.425781 307.640625 326.824219 C 309.253906 325.195312 309.6875 322.710938 308.71875 320.636719 C 300.671875 303.34375 294.578125 291.167969 290.09375 283.417969 L 288.347656 280.394531 L 291.652344 279.285156 C 325.28125 267.980469 347.878906 236.46875 347.878906 200.875 L 347.878906 178.273438 C 347.878906 137.945312 318.898438 104.355469 280.730469 97.078125 C 282.191406 101.011719 283.375 105.074219 284.292969 109.242188 C 284.3125 109.246094 284.332031 109.253906 284.351562 109.261719 C 284.328125 109.253906 284.308594 109.246094 284.285156 109.238281 C 285.675781 115.59375 286.460938 122.199219 286.460938 128.980469 L 286.460938 151.578125 C 286.460938 202.128906 245.40625 243.257812 194.941406 243.257812 L 172.007812 243.257812 M 273.085938 277.679688 L 273.085938 277.675781 " fill-opacity="1" fill-rule="nonzero"/></g></svg>